<svg xmlns="http://www.w3.org/2000/svg" width="19.094" height="14.405" viewBox="0 0 19.094 14.405">
  <path id="Back_arrow" data-name="Back arrow" d="M16.282,6.179a.353.353,0,0,1-.062.206l-6.468,5.9a.371.371,0,0,1-.205.056.208.208,0,0,1-.185-.075.223.223,0,0,1,0-.337L15.379,6.46H.267a.245.245,0,1,1,0-.487H15.5L9.363.408a.223.223,0,0,1,0-.337.278.278,0,0,1,.37,0l6.488,5.9A.2.2,0,0,1,16.282,6.179Z" transform="translate(18.094 13.344) rotate(180)" fill="none" stroke="#5c5c5c" stroke-width="2"/>
</svg>
